<mxfile host="app.diagrams.net" modified="2023-12-25T21:56:18.903Z" agent="Mozilla/5.0 (Windows NT 10.0; Win64; x64) AppleWebKit/537.36 (KHTML, like Gecko) Chrome/120.0.0.0 Safari/537.36" etag="NZYWiJvx2Rb-nFXmi9A3" version="22.1.11" type="device">
  <diagram name="Page-1" id="_Lf92RQbnsKf3z1cH1os">
    <mxGraphModel dx="2625" dy="2513" grid="1" gridSize="10" guides="1" tooltips="1" connect="1" arrows="1" fold="1" page="1" pageScale="1" pageWidth="850" pageHeight="1100" math="0" shadow="0">
      <root>
        <mxCell id="0" />
        <mxCell id="1" parent="0" />
        <mxCell id="O4O9o7GR4JmY8JjRpWBt-14" value="&lt;span style=&quot;font-size: 24px;&quot;&gt;&lt;b&gt;User&lt;br&gt;&lt;br&gt;&lt;/b&gt;&lt;/span&gt;" style="shape=umlActor;verticalLabelPosition=bottom;verticalAlign=top;html=1;outlineConnect=0;" parent="1" vertex="1">
          <mxGeometry x="254" y="480" width="125" height="300" as="geometry" />
        </mxCell>
        <mxCell id="O4O9o7GR4JmY8JjRpWBt-16" value="" style="endArrow=none;html=1;rounded=0;entryX=0;entryY=0.5;entryDx=0;entryDy=0;" parent="1" source="O4O9o7GR4JmY8JjRpWBt-14" target="O4O9o7GR4JmY8JjRpWBt-1" edge="1">
          <mxGeometry width="50" height="50" relative="1" as="geometry">
            <mxPoint x="594" y="360" as="sourcePoint" />
            <mxPoint x="644" y="310" as="targetPoint" />
            <Array as="points" />
          </mxGeometry>
        </mxCell>
        <mxCell id="O4O9o7GR4JmY8JjRpWBt-19" value="" style="endArrow=none;html=1;rounded=0;entryX=0.008;entryY=0.411;entryDx=0;entryDy=0;entryPerimeter=0;" parent="1" source="O4O9o7GR4JmY8JjRpWBt-14" target="O4O9o7GR4JmY8JjRpWBt-2" edge="1">
          <mxGeometry width="50" height="50" relative="1" as="geometry">
            <mxPoint x="224" y="220" as="sourcePoint" />
            <mxPoint x="274" y="170" as="targetPoint" />
          </mxGeometry>
        </mxCell>
        <mxCell id="O4O9o7GR4JmY8JjRpWBt-22" value="" style="swimlane;startSize=0;" parent="1" vertex="1">
          <mxGeometry x="504" y="-440" width="870" height="2440" as="geometry" />
        </mxCell>
        <mxCell id="O4O9o7GR4JmY8JjRpWBt-2" value="&lt;p style=&quot;mso-para-margin-left:0.0000gd;&quot; class=&quot;MsoNormal&quot;&gt;&lt;b&gt;&lt;span style=&quot;mso-spacerun:&#39;yes&#39;;font-family:&#39;Times New Roman&#39;;mso-fareast-font-family:等线;&lt;br/&gt;font-weight:bold;font-size:14.0000pt;&quot;&gt;&lt;/span&gt;&lt;/b&gt;&lt;/p&gt;&lt;p style=&quot;margin-left:0.0000pt;mso-para-margin-left:0.0000gd;text-indent:0.0000pt;&lt;br/&gt;mso-char-indent-count:0.0000;mso-list:l0 level2 lfo1;&quot; class=&quot;MsoNormal&quot;&gt;&lt;span style=&quot;font-family:&#39;Times New Roman&#39;;mso-fareast-font-family:&#39;Segoe UI&#39;;color:rgb(55,65,81);&lt;br/&gt;letter-spacing:0.0000pt;font-weight:bold;text-transform:none;&lt;br/&gt;font-style:normal;font-size:16.0000pt;&quot;&gt;&lt;span style=&quot;mso-list:Ignore;&quot;&gt;&lt;span&gt;&amp;nbsp;&lt;/span&gt;&lt;/span&gt;&lt;/span&gt;&lt;b&gt;&lt;span style=&quot;mso-spacerun:&#39;yes&#39;;font-family:&#39;Times New Roman&#39;;mso-fareast-font-family:&#39;Segoe UI&#39;;&lt;br/&gt;color:rgb(55,65,81);letter-spacing:0.0000pt;font-weight:bold;&lt;br/&gt;text-transform:none;font-style:normal;font-size:16.0000pt;&quot;&gt;&amp;nbsp;&lt;/span&gt;&lt;/b&gt;&lt;b&gt;&lt;span style=&quot;mso-spacerun:&#39;yes&#39;;font-family:&#39;Times New Roman&#39;;mso-fareast-font-family:&#39;Segoe UI&#39;;&lt;br/&gt;color:rgb(55,65,81);letter-spacing:0.0000pt;font-weight:bold;&lt;br/&gt;text-transform:none;font-style:normal;font-size:16.0000pt;&quot;&gt;authenticate&lt;/span&gt;&lt;/b&gt;&lt;b&gt;&lt;span style=&quot;mso-spacerun:&#39;yes&#39;;font-family:&#39;Times New Roman&#39;;mso-fareast-font-family:&#39;Segoe UI&#39;;&lt;br/&gt;color:rgb(55,65,81);letter-spacing:0.0000pt;font-weight:bold;&lt;br/&gt;text-transform:none;font-style:normal;font-size:16.0000pt;&quot;&gt;&lt;/span&gt;&lt;/b&gt;&lt;/p&gt;" style="ellipse;whiteSpace=wrap;html=1;" parent="O4O9o7GR4JmY8JjRpWBt-22" vertex="1">
          <mxGeometry x="135" y="1230" width="165" height="90" as="geometry" />
        </mxCell>
        <mxCell id="O4O9o7GR4JmY8JjRpWBt-6" value="&lt;p class=&quot;MsoNormal&quot;&gt;&lt;font style=&quot;font-size: 18px;&quot; face=&quot;Times New Roman&quot;&gt;&lt;b&gt;Adjust inventory&lt;/b&gt;&lt;/font&gt;&lt;/p&gt;" style="ellipse;whiteSpace=wrap;html=1;" parent="O4O9o7GR4JmY8JjRpWBt-22" vertex="1">
          <mxGeometry x="125" y="1570" width="260" height="80" as="geometry" />
        </mxCell>
        <mxCell id="O4O9o7GR4JmY8JjRpWBt-10" value="&lt;p class=&quot;MsoNormal&quot;&gt;&lt;b&gt;&lt;font style=&quot;font-size: 18px;&quot; face=&quot;Times New Roman&quot;&gt;Edit Profile&lt;/font&gt;&lt;/b&gt;&lt;/p&gt;" style="ellipse;whiteSpace=wrap;html=1;" parent="O4O9o7GR4JmY8JjRpWBt-22" vertex="1">
          <mxGeometry x="180" y="990" width="160" height="70" as="geometry" />
        </mxCell>
        <mxCell id="O4O9o7GR4JmY8JjRpWBt-8" value="&lt;p class=&quot;MsoNormal&quot;&gt;&lt;b&gt;&amp;nbsp;&lt;/b&gt;&lt;b&gt;&lt;span style=&quot;font-family: &amp;quot;Times New Roman&amp;quot;; color: rgb(55, 65, 81); letter-spacing: 0pt; font-size: 16pt;&quot;&gt;Send Announcement&lt;/span&gt;&lt;/b&gt;&lt;b&gt;&lt;span style=&quot;font-family: &amp;quot;Times New Roman&amp;quot;; color: rgb(55, 65, 81); letter-spacing: 0pt; font-size: 16pt;&quot;&gt;&amp;nbsp;&lt;/span&gt;&lt;/b&gt;&lt;/p&gt;" style="ellipse;whiteSpace=wrap;html=1;" parent="O4O9o7GR4JmY8JjRpWBt-22" vertex="1">
          <mxGeometry x="135" y="2340" width="230" height="80" as="geometry" />
        </mxCell>
        <mxCell id="O4O9o7GR4JmY8JjRpWBt-9" value="&lt;p class=&quot;MsoNormal&quot;&gt;&lt;font style=&quot;font-size: 18px;&quot; face=&quot;Times New Roman&quot;&gt;&lt;b&gt;send report&lt;/b&gt;&lt;/font&gt;&lt;/p&gt;" style="ellipse;whiteSpace=wrap;html=1;" parent="O4O9o7GR4JmY8JjRpWBt-22" vertex="1">
          <mxGeometry x="200" y="1470" width="160" height="80" as="geometry" />
        </mxCell>
        <mxCell id="O4O9o7GR4JmY8JjRpWBt-12" value="&lt;p class=&quot;MsoNormal&quot;&gt;&lt;b&gt;&lt;font face=&quot;Times New Roman&quot; style=&quot;font-size: 18px;&quot;&gt;Give Shipping Order&lt;/font&gt;&lt;/b&gt;&lt;b&gt;&lt;span style=&quot;font-family: &amp;quot;Times New Roman&amp;quot;; font-size: 16pt;&quot;&gt;&lt;/span&gt;&lt;/b&gt;&lt;/p&gt;" style="ellipse;whiteSpace=wrap;html=1;" parent="O4O9o7GR4JmY8JjRpWBt-22" vertex="1">
          <mxGeometry x="302.5" y="1330" width="210" height="80" as="geometry" />
        </mxCell>
        <mxCell id="O4O9o7GR4JmY8JjRpWBt-13" value="&lt;p class=&quot;MsoNormal&quot;&gt;&lt;font style=&quot;font-size: 18px;&quot; face=&quot;Times New Roman&quot;&gt;&lt;b&gt;&amp;nbsp;Ca&lt;/b&gt;&lt;b&gt;lculate profits&amp;nbsp;&lt;/b&gt;&lt;/font&gt;&lt;/p&gt;" style="ellipse;whiteSpace=wrap;html=1;" parent="O4O9o7GR4JmY8JjRpWBt-22" vertex="1">
          <mxGeometry x="150" y="2250" width="180" height="80" as="geometry" />
        </mxCell>
        <mxCell id="O4O9o7GR4JmY8JjRpWBt-69" value="&lt;p class=&quot;MsoNormal&quot;&gt;&lt;span style=&quot;mso-spacerun:&#39;yes&#39;;font-family:&#39;Times New Roman&#39;;mso-fareast-font-family:宋体;&lt;br/&gt;color:rgb(32,33,36);letter-spacing:0.0000pt;text-transform:none;&lt;br/&gt;font-style:normal;font-size:16.5000pt;mso-font-kerning:1.0000pt;&lt;br/&gt;background:rgb(248,249,250);mso-shading:rgb(248,249,250);&quot;&gt;&lt;b&gt;Update stock quantity&lt;/b&gt;&lt;/span&gt;&lt;/p&gt;" style="ellipse;whiteSpace=wrap;html=1;" parent="O4O9o7GR4JmY8JjRpWBt-22" vertex="1">
          <mxGeometry x="135" y="2160" width="187.5" height="80" as="geometry" />
        </mxCell>
        <mxCell id="O4O9o7GR4JmY8JjRpWBt-1" value="&lt;p style=&quot;margin-left:0.0000pt;mso-para-margin-left:0.0000gd;text-indent:0.0000pt;&lt;br/&gt;mso-char-indent-count:0.0000;mso-list:l0 level2 lfo1;&quot; class=&quot;MsoNormal&quot;&gt;&amp;nbsp;&lt;b&gt;&lt;span style=&quot;font-family: &amp;quot;Times New Roman&amp;quot;; font-size: 16pt;&quot;&gt;&amp;nbsp;Register&lt;/span&gt;&lt;/b&gt;&lt;/p&gt;" style="ellipse;whiteSpace=wrap;html=1;" parent="O4O9o7GR4JmY8JjRpWBt-22" vertex="1">
          <mxGeometry x="125" y="1095" width="220" height="80" as="geometry" />
        </mxCell>
        <mxCell id="O4O9o7GR4JmY8JjRpWBt-88" style="edgeStyle=none;rounded=0;orthogonalLoop=1;jettySize=auto;html=1;exitX=0.5;exitY=1;exitDx=0;exitDy=0;" parent="O4O9o7GR4JmY8JjRpWBt-22" edge="1">
          <mxGeometry relative="1" as="geometry">
            <mxPoint x="400" y="570.0000000000002" as="sourcePoint" />
            <mxPoint x="400" y="570.0000000000002" as="targetPoint" />
          </mxGeometry>
        </mxCell>
        <mxCell id="O4O9o7GR4JmY8JjRpWBt-106" value="&lt;font style=&quot;font-size: 18px;&quot; face=&quot;Times New Roman&quot;&gt;&lt;b&gt;delete book&amp;nbsp;&lt;/b&gt;&lt;/font&gt;" style="ellipse;whiteSpace=wrap;html=1;" parent="O4O9o7GR4JmY8JjRpWBt-22" vertex="1">
          <mxGeometry x="580" y="1490" width="170" height="80" as="geometry" />
        </mxCell>
        <mxCell id="O4O9o7GR4JmY8JjRpWBt-112" value="&lt;font face=&quot;Times New Roman&quot; style=&quot;font-size: 18px;&quot;&gt;&lt;b&gt;modify new book&amp;nbsp;&lt;/b&gt;&lt;/font&gt;" style="ellipse;whiteSpace=wrap;html=1;" parent="O4O9o7GR4JmY8JjRpWBt-22" vertex="1">
          <mxGeometry x="580" y="1590" width="170" height="80" as="geometry" />
        </mxCell>
        <mxCell id="O4O9o7GR4JmY8JjRpWBt-122" value="&lt;font style=&quot;font-size: 18px;&quot; face=&quot;Times New Roman&quot;&gt;&amp;lt;&amp;lt;&lt;b&gt;extend&lt;/b&gt;&amp;gt;&amp;gt;&lt;/font&gt;" style="endArrow=open;endSize=12;dashed=1;html=1;rounded=0;exitX=0;exitY=0.5;exitDx=0;exitDy=0;entryX=1;entryY=0.5;entryDx=0;entryDy=0;" parent="O4O9o7GR4JmY8JjRpWBt-22" source="O4O9o7GR4JmY8JjRpWBt-112" target="O4O9o7GR4JmY8JjRpWBt-6" edge="1">
          <mxGeometry width="160" relative="1" as="geometry">
            <mxPoint x="510" y="1910" as="sourcePoint" />
            <mxPoint x="410" y="1660" as="targetPoint" />
          </mxGeometry>
        </mxCell>
        <mxCell id="O4O9o7GR4JmY8JjRpWBt-128" value="&lt;font size=&quot;3&quot; face=&quot;Times New Roman&quot;&gt;&lt;b&gt;&amp;lt;&amp;lt;extend&amp;gt;&amp;gt;&lt;/b&gt;&lt;/font&gt;" style="endArrow=open;endSize=12;dashed=1;html=1;rounded=0;exitX=0;exitY=0.5;exitDx=0;exitDy=0;entryX=1;entryY=0;entryDx=0;entryDy=0;" parent="O4O9o7GR4JmY8JjRpWBt-22" source="O4O9o7GR4JmY8JjRpWBt-106" target="O4O9o7GR4JmY8JjRpWBt-6" edge="1">
          <mxGeometry width="160" relative="1" as="geometry">
            <mxPoint x="410" y="1520" as="sourcePoint" />
            <mxPoint x="570" y="1520" as="targetPoint" />
          </mxGeometry>
        </mxCell>
        <mxCell id="O4O9o7GR4JmY8JjRpWBt-137" value="&lt;font style=&quot;font-size: 18px;&quot; face=&quot;Times New Roman&quot;&gt;&lt;b&gt;edit inventory quantity&lt;/b&gt;&lt;/font&gt;" style="ellipse;whiteSpace=wrap;html=1;" parent="O4O9o7GR4JmY8JjRpWBt-22" vertex="1">
          <mxGeometry x="570" y="1680" width="190" height="80" as="geometry" />
        </mxCell>
        <mxCell id="O4O9o7GR4JmY8JjRpWBt-136" value="&lt;font style=&quot;font-size: 18px;&quot; face=&quot;Times New Roman&quot;&gt;&amp;lt;&amp;lt;&lt;b&gt;extend&lt;/b&gt;&amp;gt;&amp;gt;&lt;/font&gt;" style="endArrow=open;endSize=12;dashed=1;html=1;rounded=0;exitX=0;exitY=0.5;exitDx=0;exitDy=0;" parent="O4O9o7GR4JmY8JjRpWBt-22" source="O4O9o7GR4JmY8JjRpWBt-137" target="O4O9o7GR4JmY8JjRpWBt-6" edge="1">
          <mxGeometry width="160" relative="1" as="geometry">
            <mxPoint x="590" y="1640" as="sourcePoint" />
            <mxPoint x="420" y="1670" as="targetPoint" />
          </mxGeometry>
        </mxCell>
        <mxCell id="gj2pyBspUI980Gxztwlt-7" value="&lt;font face=&quot;Times New Roman&quot; style=&quot;font-size: 24px;&quot;&gt;&lt;b&gt;log out&amp;nbsp;&lt;/b&gt;&lt;/font&gt;" style="ellipse;whiteSpace=wrap;html=1;" parent="O4O9o7GR4JmY8JjRpWBt-22" vertex="1">
          <mxGeometry x="240" y="870" width="120" height="80" as="geometry" />
        </mxCell>
        <mxCell id="bMSFZ0AqYy7OHh_Ez0hN-1" value="&lt;font face=&quot;Times New Roman&quot;&gt;&lt;span style=&quot;font-size: 18px;&quot;&gt;&lt;b&gt;modify new catalog&lt;/b&gt;&lt;/span&gt;&lt;/font&gt;" style="ellipse;whiteSpace=wrap;html=1;" parent="O4O9o7GR4JmY8JjRpWBt-22" vertex="1">
          <mxGeometry x="560" y="1770" width="190" height="80" as="geometry" />
        </mxCell>
        <mxCell id="bMSFZ0AqYy7OHh_Ez0hN-2" value="&lt;font style=&quot;font-size: 18px;&quot; face=&quot;Times New Roman&quot;&gt;&amp;lt;&amp;lt;&lt;b&gt;extend&lt;/b&gt;&amp;gt;&amp;gt;&lt;/font&gt;" style="endArrow=open;endSize=12;dashed=1;html=1;rounded=0;exitX=0;exitY=0.5;exitDx=0;exitDy=0;entryX=0.667;entryY=1.047;entryDx=0;entryDy=0;entryPerimeter=0;" parent="O4O9o7GR4JmY8JjRpWBt-22" source="bMSFZ0AqYy7OHh_Ez0hN-1" target="O4O9o7GR4JmY8JjRpWBt-6" edge="1">
          <mxGeometry width="160" relative="1" as="geometry">
            <mxPoint x="580" y="1730" as="sourcePoint" />
            <mxPoint x="368" y="1659" as="targetPoint" />
          </mxGeometry>
        </mxCell>
        <mxCell id="bMSFZ0AqYy7OHh_Ez0hN-3" value="&lt;font style=&quot;font-size: 18px;&quot; face=&quot;Times New Roman&quot;&gt;&lt;b style=&quot;&quot;&gt;accept order&lt;/b&gt;&lt;/font&gt;" style="ellipse;whiteSpace=wrap;html=1;" parent="O4O9o7GR4JmY8JjRpWBt-22" vertex="1">
          <mxGeometry x="150" y="1680" width="180" height="80" as="geometry" />
        </mxCell>
        <mxCell id="bMSFZ0AqYy7OHh_Ez0hN-5" value="&lt;font face=&quot;Times New Roman&quot; style=&quot;font-size: 18px;&quot;&gt;&lt;b&gt;respond to support request&amp;nbsp;&lt;/b&gt;&lt;/font&gt;" style="ellipse;whiteSpace=wrap;html=1;" parent="O4O9o7GR4JmY8JjRpWBt-22" vertex="1">
          <mxGeometry x="160" y="1780" width="260" height="80" as="geometry" />
        </mxCell>
        <mxCell id="bMSFZ0AqYy7OHh_Ez0hN-7" value="&lt;font style=&quot;font-size: 18px;&quot; face=&quot;Times New Roman&quot;&gt;&lt;b&gt;manage accounts&amp;nbsp;&lt;/b&gt;&lt;/font&gt;" style="ellipse;whiteSpace=wrap;html=1;" parent="O4O9o7GR4JmY8JjRpWBt-22" vertex="1">
          <mxGeometry x="100" y="1900" width="185" height="80" as="geometry" />
        </mxCell>
        <mxCell id="bMSFZ0AqYy7OHh_Ez0hN-9" value="&lt;font style=&quot;font-size: 18px;&quot; face=&quot;Times New Roman&quot;&gt;&lt;b&gt;forbidden user account&amp;nbsp;&lt;/b&gt;&lt;/font&gt;" style="ellipse;whiteSpace=wrap;html=1;" parent="O4O9o7GR4JmY8JjRpWBt-22" vertex="1">
          <mxGeometry x="420" y="1980" width="210" height="50" as="geometry" />
        </mxCell>
        <mxCell id="bMSFZ0AqYy7OHh_Ez0hN-10" value="&lt;font style=&quot;font-size: 18px;&quot; face=&quot;Times New Roman&quot;&gt;&amp;lt;&amp;lt;&lt;b&gt;extend&lt;/b&gt;&amp;gt;&amp;gt;&lt;/font&gt;" style="endArrow=open;endSize=12;dashed=1;html=1;rounded=0;exitX=0;exitY=0.5;exitDx=0;exitDy=0;" parent="O4O9o7GR4JmY8JjRpWBt-22" source="bMSFZ0AqYy7OHh_Ez0hN-9" target="bMSFZ0AqYy7OHh_Ez0hN-7" edge="1">
          <mxGeometry width="160" relative="1" as="geometry">
            <mxPoint x="570" y="1820" as="sourcePoint" />
            <mxPoint x="308" y="1664" as="targetPoint" />
          </mxGeometry>
        </mxCell>
        <mxCell id="bMSFZ0AqYy7OHh_Ez0hN-11" value="&lt;font style=&quot;font-size: 18px;&quot; face=&quot;Times New Roman&quot;&gt;&lt;b&gt;pin user account&amp;nbsp;&lt;/b&gt;&lt;/font&gt;" style="ellipse;whiteSpace=wrap;html=1;" parent="O4O9o7GR4JmY8JjRpWBt-22" vertex="1">
          <mxGeometry x="395" y="2040" width="175" height="60" as="geometry" />
        </mxCell>
        <mxCell id="bMSFZ0AqYy7OHh_Ez0hN-12" value="&lt;font style=&quot;font-size: 18px;&quot; face=&quot;Times New Roman&quot;&gt;&amp;lt;&amp;lt;&lt;b&gt;extend&lt;/b&gt;&amp;gt;&amp;gt;&lt;/font&gt;" style="endArrow=open;endSize=12;dashed=1;html=1;rounded=0;exitX=0;exitY=0.5;exitDx=0;exitDy=0;" parent="O4O9o7GR4JmY8JjRpWBt-22" source="bMSFZ0AqYy7OHh_Ez0hN-11" target="bMSFZ0AqYy7OHh_Ez0hN-7" edge="1">
          <mxGeometry width="160" relative="1" as="geometry">
            <mxPoint x="560" y="1915" as="sourcePoint" />
            <mxPoint x="383" y="1932" as="targetPoint" />
          </mxGeometry>
        </mxCell>
        <mxCell id="bMSFZ0AqYy7OHh_Ez0hN-13" value="&lt;font face=&quot;Times New Roman&quot; style=&quot;font-size: 18px;&quot;&gt;&lt;b&gt;Records expenses&lt;/b&gt;&lt;/font&gt;" style="ellipse;whiteSpace=wrap;html=1;" parent="O4O9o7GR4JmY8JjRpWBt-22" vertex="1">
          <mxGeometry x="395" y="2280" width="190" height="80" as="geometry" />
        </mxCell>
        <mxCell id="bMSFZ0AqYy7OHh_Ez0hN-14" value="&lt;font style=&quot;border-color: var(--border-color); font-size: 18px;&quot; face=&quot;Times New Roman&quot;&gt;&lt;b style=&quot;border-color: var(--border-color);&quot;&gt;&amp;nbsp;record&amp;nbsp;&lt;/b&gt;&lt;/font&gt;&lt;b style=&quot;border-color: var(--border-color); font-family: &amp;quot;Times New Roman&amp;quot;; font-size: 18px;&quot;&gt;Income&lt;/b&gt;" style="ellipse;whiteSpace=wrap;html=1;" parent="O4O9o7GR4JmY8JjRpWBt-22" vertex="1">
          <mxGeometry x="410" y="2190" width="175" height="80" as="geometry" />
        </mxCell>
        <mxCell id="bMSFZ0AqYy7OHh_Ez0hN-15" value="&lt;font size=&quot;3&quot;&gt;&lt;b&gt;&amp;lt;&amp;lt;include&amp;gt;&amp;gt;&lt;/b&gt;&lt;/font&gt;" style="html=1;verticalAlign=bottom;endArrow=block;curved=0;rounded=0;entryX=0;entryY=0.5;entryDx=0;entryDy=0;exitX=1;exitY=0;exitDx=0;exitDy=0;" parent="O4O9o7GR4JmY8JjRpWBt-22" source="O4O9o7GR4JmY8JjRpWBt-13" target="bMSFZ0AqYy7OHh_Ez0hN-14" edge="1">
          <mxGeometry x="0.0852" y="-1" width="80" relative="1" as="geometry">
            <mxPoint x="300" y="2240" as="sourcePoint" />
            <mxPoint x="360" y="700" as="targetPoint" />
            <Array as="points" />
            <mxPoint as="offset" />
          </mxGeometry>
        </mxCell>
        <mxCell id="bMSFZ0AqYy7OHh_Ez0hN-16" value="&lt;font size=&quot;3&quot;&gt;&lt;b&gt;&amp;lt;&amp;lt;include&amp;gt;&amp;gt;&lt;/b&gt;&lt;/font&gt;" style="html=1;verticalAlign=bottom;endArrow=block;curved=0;rounded=0;entryX=0;entryY=0.5;entryDx=0;entryDy=0;exitX=1;exitY=0.5;exitDx=0;exitDy=0;" parent="O4O9o7GR4JmY8JjRpWBt-22" source="O4O9o7GR4JmY8JjRpWBt-13" target="bMSFZ0AqYy7OHh_Ez0hN-13" edge="1">
          <mxGeometry x="0.0852" y="-1" width="80" relative="1" as="geometry">
            <mxPoint x="298" y="2252" as="sourcePoint" />
            <mxPoint x="440" y="2180" as="targetPoint" />
            <Array as="points" />
            <mxPoint as="offset" />
          </mxGeometry>
        </mxCell>
        <mxCell id="bMSFZ0AqYy7OHh_Ez0hN-20" value="&lt;font face=&quot;Times New Roman&quot; style=&quot;font-size: 18px;&quot;&gt;&lt;b&gt;edit catalog&amp;nbsp;&lt;/b&gt;&lt;/font&gt;" style="ellipse;whiteSpace=wrap;html=1;" parent="O4O9o7GR4JmY8JjRpWBt-22" vertex="1">
          <mxGeometry x="595" y="1390" width="135" height="80" as="geometry" />
        </mxCell>
        <mxCell id="bMSFZ0AqYy7OHh_Ez0hN-21" value="&lt;font size=&quot;3&quot; face=&quot;Times New Roman&quot;&gt;&lt;b&gt;&amp;lt;&amp;lt;extend&amp;gt;&amp;gt;&lt;/b&gt;&lt;/font&gt;" style="endArrow=open;endSize=12;dashed=1;html=1;rounded=0;exitX=0;exitY=0.5;exitDx=0;exitDy=0;" parent="O4O9o7GR4JmY8JjRpWBt-22" source="bMSFZ0AqYy7OHh_Ez0hN-20" target="O4O9o7GR4JmY8JjRpWBt-6" edge="1">
          <mxGeometry width="160" relative="1" as="geometry">
            <mxPoint x="590" y="1540" as="sourcePoint" />
            <mxPoint x="357" y="1592" as="targetPoint" />
          </mxGeometry>
        </mxCell>
        <mxCell id="16TQ4lvST8oH4qSsmWAM-1" value="&lt;font face=&quot;Times New Roman&quot; style=&quot;font-size: 18px;&quot;&gt;&lt;b&gt;search user account&amp;nbsp;&lt;/b&gt;&lt;/font&gt;" style="ellipse;whiteSpace=wrap;html=1;" parent="O4O9o7GR4JmY8JjRpWBt-22" vertex="1">
          <mxGeometry x="440" y="1850" width="205" height="60" as="geometry" />
        </mxCell>
        <mxCell id="16TQ4lvST8oH4qSsmWAM-2" value="&lt;font face=&quot;Times New Roman&quot; style=&quot;font-size: 18px;&quot;&gt;&lt;b&gt;edit user account&amp;nbsp;&lt;/b&gt;&lt;/font&gt;" style="ellipse;whiteSpace=wrap;html=1;" parent="O4O9o7GR4JmY8JjRpWBt-22" vertex="1">
          <mxGeometry x="455" y="1920" width="190" height="50" as="geometry" />
        </mxCell>
        <mxCell id="16TQ4lvST8oH4qSsmWAM-4" value="&lt;font style=&quot;font-size: 18px;&quot; face=&quot;Times New Roman&quot;&gt;&amp;lt;&amp;lt;&lt;b&gt;extend&lt;/b&gt;&amp;gt;&amp;gt;&lt;/font&gt;" style="endArrow=open;endSize=12;dashed=1;html=1;rounded=0;exitX=0;exitY=0.5;exitDx=0;exitDy=0;entryX=1;entryY=0.5;entryDx=0;entryDy=0;" parent="O4O9o7GR4JmY8JjRpWBt-22" source="16TQ4lvST8oH4qSsmWAM-2" target="bMSFZ0AqYy7OHh_Ez0hN-7" edge="1">
          <mxGeometry width="160" relative="1" as="geometry">
            <mxPoint x="370" y="2035" as="sourcePoint" />
            <mxPoint x="263" y="1980" as="targetPoint" />
          </mxGeometry>
        </mxCell>
        <mxCell id="16TQ4lvST8oH4qSsmWAM-5" value="&lt;font style=&quot;font-size: 18px;&quot; face=&quot;Times New Roman&quot;&gt;&amp;lt;&amp;lt;&lt;b&gt;extend&lt;/b&gt;&amp;gt;&amp;gt;&lt;/font&gt;" style="endArrow=open;endSize=12;dashed=1;html=1;rounded=0;exitX=0;exitY=0.5;exitDx=0;exitDy=0;" parent="O4O9o7GR4JmY8JjRpWBt-22" source="16TQ4lvST8oH4qSsmWAM-1" target="bMSFZ0AqYy7OHh_Ez0hN-7" edge="1">
          <mxGeometry width="160" relative="1" as="geometry">
            <mxPoint x="380" y="2045" as="sourcePoint" />
            <mxPoint x="273" y="1990" as="targetPoint" />
          </mxGeometry>
        </mxCell>
        <mxCell id="O4O9o7GR4JmY8JjRpWBt-4" value="&lt;p style=&quot;margin-left:0.0000pt;mso-para-margin-left:0.0000gd;text-indent:0.0000pt;&lt;br/&gt;mso-char-indent-count:0.0000;mso-list:l0 level2 lfo1;&quot; class=&quot;MsoNormal&quot;&gt;&amp;nbsp;&lt;b&gt;&lt;span style=&quot;font-family: &amp;quot;Times New Roman&amp;quot;; font-size: 16pt;&quot;&gt;Make Order&amp;nbsp;&lt;/span&gt;&lt;/b&gt;&lt;b&gt;&lt;span style=&quot;font-family: &amp;quot;Times New Roman&amp;quot;; font-size: 16pt;&quot;&gt;&lt;/span&gt;&lt;/b&gt;&lt;/p&gt;" style="ellipse;whiteSpace=wrap;html=1;" parent="O4O9o7GR4JmY8JjRpWBt-22" vertex="1">
          <mxGeometry x="170" y="40" width="390" height="90" as="geometry" />
        </mxCell>
        <mxCell id="O4O9o7GR4JmY8JjRpWBt-44" value="&lt;font style=&quot;font-size: 24px;&quot; face=&quot;Times New Roman&quot;&gt;&lt;b&gt;choose book&lt;/b&gt;&lt;/font&gt;" style="ellipse;whiteSpace=wrap;html=1;" parent="O4O9o7GR4JmY8JjRpWBt-22" vertex="1">
          <mxGeometry x="140" y="190" width="160" height="80" as="geometry" />
        </mxCell>
        <mxCell id="O4O9o7GR4JmY8JjRpWBt-130" value="&lt;font size=&quot;3&quot;&gt;&lt;b&gt;&amp;lt;&amp;lt;include&amp;gt;&amp;gt;&lt;/b&gt;&lt;/font&gt;" style="html=1;verticalAlign=bottom;endArrow=block;curved=0;rounded=0;exitX=0.17;exitY=0.941;exitDx=0;exitDy=0;entryX=0.5;entryY=0;entryDx=0;entryDy=0;exitPerimeter=0;" parent="O4O9o7GR4JmY8JjRpWBt-22" source="O4O9o7GR4JmY8JjRpWBt-4" target="O4O9o7GR4JmY8JjRpWBt-44" edge="1">
          <mxGeometry width="80" relative="1" as="geometry">
            <mxPoint x="120" y="550" as="sourcePoint" />
            <mxPoint x="200" y="550" as="targetPoint" />
          </mxGeometry>
        </mxCell>
        <mxCell id="O4O9o7GR4JmY8JjRpWBt-83" value="&lt;font style=&quot;font-size: 18px;&quot;&gt;&lt;b&gt;put book in cart&lt;/b&gt;&lt;/font&gt;" style="ellipse;whiteSpace=wrap;html=1;" parent="O4O9o7GR4JmY8JjRpWBt-22" vertex="1">
          <mxGeometry x="315" y="190" width="150" height="80" as="geometry" />
        </mxCell>
        <mxCell id="O4O9o7GR4JmY8JjRpWBt-131" value="&lt;font size=&quot;3&quot;&gt;&lt;b&gt;&amp;lt;&amp;lt;include&amp;gt;&amp;gt;&lt;/b&gt;&lt;/font&gt;" style="html=1;verticalAlign=bottom;endArrow=block;curved=0;rounded=0;" parent="O4O9o7GR4JmY8JjRpWBt-22" source="O4O9o7GR4JmY8JjRpWBt-4" target="O4O9o7GR4JmY8JjRpWBt-83" edge="1">
          <mxGeometry x="0.0143" y="5" width="80" relative="1" as="geometry">
            <mxPoint x="340" y="610" as="sourcePoint" />
            <mxPoint x="350.01107421071697" y="690.0885936857358" as="targetPoint" />
            <Array as="points" />
            <mxPoint y="1" as="offset" />
          </mxGeometry>
        </mxCell>
        <mxCell id="O4O9o7GR4JmY8JjRpWBt-46" value="&lt;font style=&quot;font-size: 18px;&quot; face=&quot;Times New Roman&quot;&gt;&lt;b&gt;confirm order&lt;/b&gt;&lt;/font&gt;" style="ellipse;whiteSpace=wrap;html=1;" parent="O4O9o7GR4JmY8JjRpWBt-22" vertex="1">
          <mxGeometry x="490" y="190" width="160" height="80" as="geometry" />
        </mxCell>
        <mxCell id="O4O9o7GR4JmY8JjRpWBt-132" value="&lt;font size=&quot;3&quot;&gt;&lt;b&gt;&amp;lt;&amp;lt;include&amp;gt;&amp;gt;&lt;/b&gt;&lt;/font&gt;" style="html=1;verticalAlign=bottom;endArrow=block;curved=0;rounded=0;exitX=1;exitY=1;exitDx=0;exitDy=0;" parent="O4O9o7GR4JmY8JjRpWBt-22" source="O4O9o7GR4JmY8JjRpWBt-4" target="O4O9o7GR4JmY8JjRpWBt-46" edge="1">
          <mxGeometry x="-0.0178" width="80" relative="1" as="geometry">
            <mxPoint x="140" y="527" as="sourcePoint" />
            <mxPoint x="130" y="620" as="targetPoint" />
            <Array as="points" />
            <mxPoint as="offset" />
          </mxGeometry>
        </mxCell>
        <mxCell id="O4O9o7GR4JmY8JjRpWBt-11" value="&lt;p class=&quot;MsoNormal&quot;&gt;&lt;/p&gt;&lt;b style=&quot;border-color: var(--border-color);&quot;&gt;&lt;font style=&quot;border-color: var(--border-color); font-size: 18px;&quot; face=&quot;Times New Roman&quot;&gt;Request&amp;nbsp;&lt;b style=&quot;background-color: initial; font-family: Helvetica; font-size: 12px;&quot;&gt;&lt;font style=&quot;font-size: 18px;&quot; face=&quot;Times New Roman&quot;&gt;Support&amp;nbsp;&lt;/font&gt;&lt;/b&gt;&lt;br&gt;&lt;/font&gt;&lt;/b&gt;" style="ellipse;whiteSpace=wrap;html=1;" parent="O4O9o7GR4JmY8JjRpWBt-22" vertex="1">
          <mxGeometry x="280" y="290" width="170" height="80" as="geometry" />
        </mxCell>
        <mxCell id="O4O9o7GR4JmY8JjRpWBt-5" value="&lt;h1&gt;&lt;font face=&quot;Times New Roman&quot; style=&quot;font-size: 18px;&quot;&gt;&lt;b style=&quot;&quot;&gt;Return order&lt;/b&gt;&lt;/font&gt;&lt;/h1&gt;" style="ellipse;whiteSpace=wrap;html=1;" parent="O4O9o7GR4JmY8JjRpWBt-22" vertex="1">
          <mxGeometry x="290" y="390" width="160" height="80" as="geometry" />
        </mxCell>
        <mxCell id="O4O9o7GR4JmY8JjRpWBt-7" value="&lt;p class=&quot;MsoNormal&quot;&gt;&lt;b&gt;&lt;font style=&quot;font-size: 18px;&quot; face=&quot;Times New Roman&quot;&gt;Write Review&lt;/font&gt;&lt;/b&gt;&lt;/p&gt;" style="ellipse;whiteSpace=wrap;html=1;" parent="O4O9o7GR4JmY8JjRpWBt-22" vertex="1">
          <mxGeometry x="290" y="480" width="170" height="80" as="geometry" />
        </mxCell>
        <mxCell id="O4O9o7GR4JmY8JjRpWBt-3" value="&lt;p style=&quot;margin-left:0.0000pt;mso-para-margin-left:0.0000gd;text-indent:0.0000pt;&lt;br/&gt;mso-char-indent-count:0.0000;mso-list:l0 level2 lfo1;&quot; class=&quot;MsoNormal&quot;&gt;&lt;font face=&quot;Times New Roman&quot;&gt;&lt;span style=&quot;font-size: 24px;&quot;&gt;&lt;b&gt;search book&lt;/b&gt;&lt;/span&gt;&lt;/font&gt;&lt;/p&gt;" style="ellipse;whiteSpace=wrap;html=1;" parent="O4O9o7GR4JmY8JjRpWBt-22" vertex="1">
          <mxGeometry x="300" y="590" width="170" height="80" as="geometry" />
        </mxCell>
        <mxCell id="gj2pyBspUI980Gxztwlt-2" value="&lt;b style=&quot;border-color: var(--border-color); font-family: &amp;quot;Times New Roman&amp;quot;; font-size: 14px;&quot;&gt;search book by author&lt;/b&gt;" style="ellipse;whiteSpace=wrap;html=1;" parent="O4O9o7GR4JmY8JjRpWBt-22" vertex="1">
          <mxGeometry x="615" y="640" width="150" height="80" as="geometry" />
        </mxCell>
        <mxCell id="gj2pyBspUI980Gxztwlt-5" value="&lt;font size=&quot;3&quot; face=&quot;Times New Roman&quot;&gt;&lt;b&gt;&amp;lt;&amp;lt;extend&amp;gt;&amp;gt;&lt;/b&gt;&lt;/font&gt;" style="endArrow=open;endSize=12;dashed=1;html=1;rounded=0;exitX=0;exitY=0.5;exitDx=0;exitDy=0;entryX=1;entryY=0.5;entryDx=0;entryDy=0;" parent="O4O9o7GR4JmY8JjRpWBt-22" source="gj2pyBspUI980Gxztwlt-2" target="O4O9o7GR4JmY8JjRpWBt-3" edge="1">
          <mxGeometry width="160" relative="1" as="geometry">
            <mxPoint x="600" y="1540" as="sourcePoint" />
            <mxPoint x="392" y="1652" as="targetPoint" />
            <Array as="points" />
          </mxGeometry>
        </mxCell>
        <mxCell id="gj2pyBspUI980Gxztwlt-1" value="&lt;font style=&quot;font-size: 14px;&quot; face=&quot;Times New Roman&quot;&gt;&lt;b style=&quot;&quot;&gt;search book by title&lt;/b&gt;&lt;/font&gt;" style="ellipse;whiteSpace=wrap;html=1;" parent="O4O9o7GR4JmY8JjRpWBt-22" vertex="1">
          <mxGeometry x="605" y="540" width="150" height="80" as="geometry" />
        </mxCell>
        <mxCell id="gj2pyBspUI980Gxztwlt-4" value="&lt;font size=&quot;3&quot; face=&quot;Times New Roman&quot;&gt;&lt;b&gt;&amp;lt;&amp;lt;extend&amp;gt;&amp;gt;&lt;/b&gt;&lt;/font&gt;" style="endArrow=open;endSize=12;dashed=1;html=1;rounded=0;exitX=0;exitY=0.5;exitDx=0;exitDy=0;" parent="O4O9o7GR4JmY8JjRpWBt-22" source="gj2pyBspUI980Gxztwlt-1" target="O4O9o7GR4JmY8JjRpWBt-3" edge="1">
          <mxGeometry width="160" relative="1" as="geometry">
            <mxPoint x="590" y="1530" as="sourcePoint" />
            <mxPoint x="382" y="1642" as="targetPoint" />
          </mxGeometry>
        </mxCell>
        <mxCell id="gj2pyBspUI980Gxztwlt-3" value="&lt;b style=&quot;border-color: var(--border-color); font-family: &amp;quot;Times New Roman&amp;quot;; font-size: 14px;&quot;&gt;search book by catalog name&lt;/b&gt;" style="ellipse;whiteSpace=wrap;html=1;" parent="O4O9o7GR4JmY8JjRpWBt-22" vertex="1">
          <mxGeometry x="595" y="750" width="170" height="80" as="geometry" />
        </mxCell>
        <mxCell id="gj2pyBspUI980Gxztwlt-6" value="&lt;font size=&quot;3&quot; face=&quot;Times New Roman&quot;&gt;&lt;b&gt;&amp;lt;&amp;lt;extend&amp;gt;&amp;gt;&lt;/b&gt;&lt;/font&gt;" style="endArrow=open;endSize=12;dashed=1;html=1;rounded=0;exitX=0;exitY=0.5;exitDx=0;exitDy=0;" parent="O4O9o7GR4JmY8JjRpWBt-22" source="gj2pyBspUI980Gxztwlt-3" target="O4O9o7GR4JmY8JjRpWBt-3" edge="1">
          <mxGeometry width="160" relative="1" as="geometry">
            <mxPoint x="610" y="1550" as="sourcePoint" />
            <mxPoint x="402" y="1662" as="targetPoint" />
          </mxGeometry>
        </mxCell>
        <mxCell id="gj2pyBspUI980Gxztwlt-13" value="&lt;font style=&quot;font-size: 18px;&quot; face=&quot;Times New Roman&quot;&gt;&lt;b&gt;check book profile&lt;/b&gt;&lt;/font&gt;" style="ellipse;whiteSpace=wrap;html=1;direction=south;" parent="O4O9o7GR4JmY8JjRpWBt-22" vertex="1">
          <mxGeometry x="255" y="720" width="220" height="100" as="geometry" />
        </mxCell>
        <mxCell id="Thp1dpwoOktOX89k4j6r-4" value="&lt;font face=&quot;Times New Roman&quot; style=&quot;font-size: 18px;&quot;&gt;&lt;b&gt;check stock quantity&lt;/b&gt;&lt;/font&gt;" style="ellipse;whiteSpace=wrap;html=1;" parent="O4O9o7GR4JmY8JjRpWBt-22" vertex="1">
          <mxGeometry x="160" y="2070" width="120" height="80" as="geometry" />
        </mxCell>
        <mxCell id="Thp1dpwoOktOX89k4j6r-6" value="&lt;font face=&quot;Times New Roman&quot; style=&quot;font-size: 18px;&quot;&gt;&lt;b&gt;verify Account data&lt;/b&gt;&lt;/font&gt;" style="ellipse;whiteSpace=wrap;html=1;" parent="O4O9o7GR4JmY8JjRpWBt-22" vertex="1">
          <mxGeometry x="25" y="1990" width="180" height="80" as="geometry" />
        </mxCell>
        <mxCell id="O4O9o7GR4JmY8JjRpWBt-26" value="" style="endArrow=none;html=1;rounded=0;entryX=0;entryY=0.5;entryDx=0;entryDy=0;" parent="1" source="O4O9o7GR4JmY8JjRpWBt-14" target="O4O9o7GR4JmY8JjRpWBt-4" edge="1">
          <mxGeometry width="50" height="50" relative="1" as="geometry">
            <mxPoint x="264" y="460" as="sourcePoint" />
            <mxPoint x="314" y="410" as="targetPoint" />
            <Array as="points" />
          </mxGeometry>
        </mxCell>
        <mxCell id="O4O9o7GR4JmY8JjRpWBt-27" value="" style="endArrow=none;html=1;rounded=0;entryX=0;entryY=0.5;entryDx=0;entryDy=0;" parent="1" source="O4O9o7GR4JmY8JjRpWBt-14" target="O4O9o7GR4JmY8JjRpWBt-5" edge="1">
          <mxGeometry width="50" height="50" relative="1" as="geometry">
            <mxPoint x="214" y="380" as="sourcePoint" />
            <mxPoint x="244" y="510" as="targetPoint" />
          </mxGeometry>
        </mxCell>
        <mxCell id="O4O9o7GR4JmY8JjRpWBt-28" value="" style="endArrow=none;html=1;rounded=0;entryX=0;entryY=1;entryDx=0;entryDy=0;" parent="1" source="O4O9o7GR4JmY8JjRpWBt-14" target="O4O9o7GR4JmY8JjRpWBt-7" edge="1">
          <mxGeometry width="50" height="50" relative="1" as="geometry">
            <mxPoint x="194" y="600" as="sourcePoint" />
            <mxPoint x="244" y="550" as="targetPoint" />
          </mxGeometry>
        </mxCell>
        <mxCell id="O4O9o7GR4JmY8JjRpWBt-29" value="" style="endArrow=none;html=1;rounded=0;entryX=0.025;entryY=0.628;entryDx=0;entryDy=0;entryPerimeter=0;" parent="1" source="O4O9o7GR4JmY8JjRpWBt-14" target="O4O9o7GR4JmY8JjRpWBt-10" edge="1">
          <mxGeometry width="50" height="50" relative="1" as="geometry">
            <mxPoint x="224" y="550" as="sourcePoint" />
            <mxPoint x="274" y="500" as="targetPoint" />
          </mxGeometry>
        </mxCell>
        <mxCell id="O4O9o7GR4JmY8JjRpWBt-30" value="&lt;span style=&quot;font-size: 24px;&quot;&gt;&lt;b&gt;system&lt;/b&gt;&lt;/span&gt;" style="shape=umlActor;verticalLabelPosition=bottom;verticalAlign=top;html=1;outlineConnect=0;" parent="1" vertex="1">
          <mxGeometry x="1744" y="410" width="100" height="300" as="geometry" />
        </mxCell>
        <mxCell id="O4O9o7GR4JmY8JjRpWBt-31" value="" style="endArrow=none;html=1;rounded=0;entryX=0;entryY=0.5;entryDx=0;entryDy=0;" parent="1" source="O4O9o7GR4JmY8JjRpWBt-14" target="O4O9o7GR4JmY8JjRpWBt-11" edge="1">
          <mxGeometry width="50" height="50" relative="1" as="geometry">
            <mxPoint x="414" y="180" as="sourcePoint" />
            <mxPoint x="374" y="780" as="targetPoint" />
          </mxGeometry>
        </mxCell>
        <mxCell id="O4O9o7GR4JmY8JjRpWBt-60" value="&lt;span style=&quot;font-size: 24px;&quot;&gt;&lt;b&gt;Admin&lt;/b&gt;&lt;/span&gt;" style="shape=umlActor;verticalLabelPosition=bottom;verticalAlign=top;html=1;outlineConnect=0;" parent="1" vertex="1">
          <mxGeometry x="254" y="1110" width="90" height="170" as="geometry" />
        </mxCell>
        <mxCell id="O4O9o7GR4JmY8JjRpWBt-61" value="" style="endArrow=none;html=1;rounded=0;entryX=0;entryY=0.5;entryDx=0;entryDy=0;" parent="1" source="O4O9o7GR4JmY8JjRpWBt-60" target="O4O9o7GR4JmY8JjRpWBt-6" edge="1">
          <mxGeometry width="50" height="50" relative="1" as="geometry">
            <mxPoint x="324" y="1050" as="sourcePoint" />
            <mxPoint x="374" y="1000" as="targetPoint" />
          </mxGeometry>
        </mxCell>
        <mxCell id="O4O9o7GR4JmY8JjRpWBt-62" value="" style="endArrow=none;html=1;rounded=0;entryX=0;entryY=0.5;entryDx=0;entryDy=0;" parent="1" source="O4O9o7GR4JmY8JjRpWBt-60" target="O4O9o7GR4JmY8JjRpWBt-9" edge="1">
          <mxGeometry width="50" height="50" relative="1" as="geometry">
            <mxPoint x="264" y="1310" as="sourcePoint" />
            <mxPoint x="324" y="1260" as="targetPoint" />
          </mxGeometry>
        </mxCell>
        <mxCell id="O4O9o7GR4JmY8JjRpWBt-63" value="&lt;font style=&quot;font-size: 24px;&quot;&gt;&lt;b&gt;system&lt;/b&gt;&lt;/font&gt;" style="shape=umlActor;verticalLabelPosition=bottom;verticalAlign=top;html=1;outlineConnect=0;" parent="1" vertex="1">
          <mxGeometry x="284" y="1740" width="100" height="200" as="geometry" />
        </mxCell>
        <mxCell id="O4O9o7GR4JmY8JjRpWBt-65" value="" style="endArrow=none;html=1;rounded=0;entryX=0;entryY=0.5;entryDx=0;entryDy=0;" parent="1" source="O4O9o7GR4JmY8JjRpWBt-63" target="O4O9o7GR4JmY8JjRpWBt-13" edge="1">
          <mxGeometry width="50" height="50" relative="1" as="geometry">
            <mxPoint x="274" y="1290" as="sourcePoint" />
            <mxPoint x="384" y="1130" as="targetPoint" />
          </mxGeometry>
        </mxCell>
        <mxCell id="O4O9o7GR4JmY8JjRpWBt-66" value="" style="endArrow=none;html=1;rounded=0;entryX=0;entryY=0.5;entryDx=0;entryDy=0;" parent="1" source="O4O9o7GR4JmY8JjRpWBt-63" target="O4O9o7GR4JmY8JjRpWBt-13" edge="1">
          <mxGeometry width="50" height="50" relative="1" as="geometry">
            <mxPoint x="334" y="1180" as="sourcePoint" />
            <mxPoint x="384" y="1130" as="targetPoint" />
          </mxGeometry>
        </mxCell>
        <mxCell id="O4O9o7GR4JmY8JjRpWBt-67" value="" style="endArrow=none;html=1;rounded=0;entryX=0;entryY=0.5;entryDx=0;entryDy=0;" parent="1" source="O4O9o7GR4JmY8JjRpWBt-63" target="O4O9o7GR4JmY8JjRpWBt-8" edge="1">
          <mxGeometry width="50" height="50" relative="1" as="geometry">
            <mxPoint x="334" y="1450" as="sourcePoint" />
            <mxPoint x="384" y="1400" as="targetPoint" />
          </mxGeometry>
        </mxCell>
        <mxCell id="O4O9o7GR4JmY8JjRpWBt-71" value="" style="endArrow=none;html=1;rounded=0;entryX=0;entryY=0.5;entryDx=0;entryDy=0;" parent="1" source="O4O9o7GR4JmY8JjRpWBt-63" target="O4O9o7GR4JmY8JjRpWBt-69" edge="1">
          <mxGeometry width="50" height="50" relative="1" as="geometry">
            <mxPoint x="274" y="1300" as="sourcePoint" />
            <mxPoint x="324" y="1250" as="targetPoint" />
          </mxGeometry>
        </mxCell>
        <mxCell id="O4O9o7GR4JmY8JjRpWBt-72" value="" style="endArrow=none;html=1;rounded=0;entryX=0;entryY=0.5;entryDx=0;entryDy=0;" parent="1" source="O4O9o7GR4JmY8JjRpWBt-60" target="O4O9o7GR4JmY8JjRpWBt-12" edge="1">
          <mxGeometry width="50" height="50" relative="1" as="geometry">
            <mxPoint x="284" y="940" as="sourcePoint" />
            <mxPoint x="334" y="890" as="targetPoint" />
          </mxGeometry>
        </mxCell>
        <mxCell id="O4O9o7GR4JmY8JjRpWBt-75" value="" style="endArrow=none;html=1;rounded=0;exitX=1;exitY=0.5;exitDx=0;exitDy=0;" parent="1" source="O4O9o7GR4JmY8JjRpWBt-2" target="O4O9o7GR4JmY8JjRpWBt-30" edge="1">
          <mxGeometry width="50" height="50" relative="1" as="geometry">
            <mxPoint x="654" y="-50" as="sourcePoint" />
            <mxPoint x="1204" y="-380" as="targetPoint" />
            <Array as="points" />
          </mxGeometry>
        </mxCell>
        <mxCell id="O4O9o7GR4JmY8JjRpWBt-93" value="" style="endArrow=none;html=1;rounded=0;exitX=1;exitY=0.5;exitDx=0;exitDy=0;" parent="1" source="O4O9o7GR4JmY8JjRpWBt-1" target="O4O9o7GR4JmY8JjRpWBt-30" edge="1">
          <mxGeometry width="50" height="50" relative="1" as="geometry">
            <mxPoint x="654" y="-110" as="sourcePoint" />
            <mxPoint x="964" y="-190" as="targetPoint" />
          </mxGeometry>
        </mxCell>
        <mxCell id="O4O9o7GR4JmY8JjRpWBt-94" value="" style="endArrow=none;html=1;rounded=0;exitX=1;exitY=0.5;exitDx=0;exitDy=0;" parent="1" source="O4O9o7GR4JmY8JjRpWBt-10" target="O4O9o7GR4JmY8JjRpWBt-30" edge="1">
          <mxGeometry width="50" height="50" relative="1" as="geometry">
            <mxPoint x="964" y="420" as="sourcePoint" />
            <mxPoint x="1014" y="370" as="targetPoint" />
          </mxGeometry>
        </mxCell>
        <mxCell id="O4O9o7GR4JmY8JjRpWBt-95" value="" style="endArrow=none;html=1;rounded=0;exitX=1;exitY=0.5;exitDx=0;exitDy=0;" parent="1" source="O4O9o7GR4JmY8JjRpWBt-5" target="gj2pyBspUI980Gxztwlt-11" edge="1">
          <mxGeometry width="50" height="50" relative="1" as="geometry">
            <mxPoint x="994" y="540" as="sourcePoint" />
            <mxPoint x="1044" y="490" as="targetPoint" />
          </mxGeometry>
        </mxCell>
        <mxCell id="O4O9o7GR4JmY8JjRpWBt-96" value="&lt;p style=&quot;margin-right:0.0000pt;margin-left:0.0000pt;text-indent:0.0000pt;&lt;br/&gt;padding:0pt 0pt 0pt 0pt ;mso-pagination:widow-orphan;text-align:left;&lt;br/&gt;line-height:21.6000pt;background:rgb(248,249,250);&quot; class=&quot;pre&quot;&gt;&lt;span style=&quot;color: rgb(32, 33, 36); text-transform: none; font-style: normal; background: rgb(248, 249, 250);&quot;&gt;&lt;font face=&quot;Times New Roman&quot; style=&quot;font-size: 24px;&quot;&gt;&lt;b&gt;Delivery representative&lt;/b&gt;&lt;/font&gt;&lt;/span&gt;&lt;span style=&quot;mso-spacerun:&#39;yes&#39;;font-family:SimSun;color:rgb(32,33,36);&lt;br/&gt;letter-spacing:0.0000pt;text-transform:none;font-style:normal;&lt;br/&gt;font-size:16.5000pt;mso-font-kerning:0.0000pt;&quot;&gt;&lt;/span&gt;&lt;/p&gt;" style="shape=umlActor;verticalLabelPosition=bottom;verticalAlign=top;html=1;outlineConnect=0;" parent="1" vertex="1">
          <mxGeometry x="1774" y="790" width="100" height="320" as="geometry" />
        </mxCell>
        <mxCell id="O4O9o7GR4JmY8JjRpWBt-98" value="" style="endArrow=none;html=1;rounded=0;exitX=1;exitY=0.5;exitDx=0;exitDy=0;" parent="1" source="O4O9o7GR4JmY8JjRpWBt-12" target="O4O9o7GR4JmY8JjRpWBt-96" edge="1">
          <mxGeometry width="50" height="50" relative="1" as="geometry">
            <mxPoint x="1044" y="1060" as="sourcePoint" />
            <mxPoint x="1094" y="1010" as="targetPoint" />
          </mxGeometry>
        </mxCell>
        <mxCell id="O4O9o7GR4JmY8JjRpWBt-105" value="" style="endArrow=none;html=1;rounded=0;entryX=1;entryY=0.5;entryDx=0;entryDy=0;" parent="1" source="gj2pyBspUI980Gxztwlt-11" target="O4O9o7GR4JmY8JjRpWBt-11" edge="1">
          <mxGeometry width="50" height="50" relative="1" as="geometry">
            <mxPoint x="849" y="740" as="sourcePoint" />
            <mxPoint x="899" y="690" as="targetPoint" />
          </mxGeometry>
        </mxCell>
        <mxCell id="O4O9o7GR4JmY8JjRpWBt-114" style="edgeStyle=none;rounded=0;orthogonalLoop=1;jettySize=auto;html=1;exitX=0;exitY=0;exitDx=0;exitDy=0;" parent="1" source="O4O9o7GR4JmY8JjRpWBt-22" target="O4O9o7GR4JmY8JjRpWBt-22" edge="1">
          <mxGeometry relative="1" as="geometry" />
        </mxCell>
        <mxCell id="gj2pyBspUI980Gxztwlt-8" value="" style="endArrow=none;html=1;rounded=0;entryX=-0.01;entryY=0.597;entryDx=0;entryDy=0;entryPerimeter=0;" parent="1" source="O4O9o7GR4JmY8JjRpWBt-14" target="gj2pyBspUI980Gxztwlt-7" edge="1">
          <mxGeometry width="50" height="50" relative="1" as="geometry">
            <mxPoint x="374" y="140" as="sourcePoint" />
            <mxPoint x="424" y="90" as="targetPoint" />
          </mxGeometry>
        </mxCell>
        <mxCell id="gj2pyBspUI980Gxztwlt-9" value="" style="endArrow=none;html=1;rounded=0;exitX=1;exitY=0.5;exitDx=0;exitDy=0;" parent="1" source="gj2pyBspUI980Gxztwlt-7" target="O4O9o7GR4JmY8JjRpWBt-30" edge="1">
          <mxGeometry width="50" height="50" relative="1" as="geometry">
            <mxPoint x="764" y="-90" as="sourcePoint" />
            <mxPoint x="814" y="-140" as="targetPoint" />
          </mxGeometry>
        </mxCell>
        <mxCell id="gj2pyBspUI980Gxztwlt-11" value="&lt;font style=&quot;font-size: 24px;&quot; face=&quot;Times New Roman&quot;&gt;&lt;b&gt;Admin&lt;/b&gt;&lt;/font&gt;" style="shape=umlActor;verticalLabelPosition=bottom;verticalAlign=top;html=1;outlineConnect=0;" parent="1" vertex="1">
          <mxGeometry x="1714" y="10" width="130" height="250" as="geometry" />
        </mxCell>
        <mxCell id="gj2pyBspUI980Gxztwlt-12" value="" style="endArrow=none;html=1;rounded=0;entryX=1;entryY=0;entryDx=0;entryDy=0;" parent="1" source="gj2pyBspUI980Gxztwlt-11" target="O4O9o7GR4JmY8JjRpWBt-7" edge="1">
          <mxGeometry width="50" height="50" relative="1" as="geometry">
            <mxPoint x="1364" y="370" as="sourcePoint" />
            <mxPoint x="749" y="610" as="targetPoint" />
          </mxGeometry>
        </mxCell>
        <mxCell id="gj2pyBspUI980Gxztwlt-14" value="" style="endArrow=none;html=1;rounded=0;entryX=0.5;entryY=1;entryDx=0;entryDy=0;" parent="1" source="O4O9o7GR4JmY8JjRpWBt-14" target="gj2pyBspUI980Gxztwlt-13" edge="1">
          <mxGeometry width="50" height="50" relative="1" as="geometry">
            <mxPoint x="364" y="840" as="sourcePoint" />
            <mxPoint x="794" y="430" as="targetPoint" />
          </mxGeometry>
        </mxCell>
        <mxCell id="gj2pyBspUI980Gxztwlt-16" value="&lt;font style=&quot;font-size: 48px;&quot; face=&quot;Times New Roman&quot;&gt;&lt;b style=&quot;&quot;&gt;use case diagram for Booksminia&amp;nbsp;&lt;/b&gt;&lt;/font&gt;" style="text;html=1;align=center;verticalAlign=middle;resizable=0;points=[];autosize=1;strokeColor=none;fillColor=none;" parent="1" vertex="1">
          <mxGeometry x="534" y="-520" width="710" height="70" as="geometry" />
        </mxCell>
        <mxCell id="bMSFZ0AqYy7OHh_Ez0hN-4" value="" style="endArrow=none;html=1;rounded=0;entryX=0;entryY=0.5;entryDx=0;entryDy=0;" parent="1" source="O4O9o7GR4JmY8JjRpWBt-60" target="bMSFZ0AqYy7OHh_Ez0hN-3" edge="1">
          <mxGeometry width="50" height="50" relative="1" as="geometry">
            <mxPoint x="314" y="1280" as="sourcePoint" />
            <mxPoint x="364" y="1230" as="targetPoint" />
          </mxGeometry>
        </mxCell>
        <mxCell id="bMSFZ0AqYy7OHh_Ez0hN-6" value="" style="endArrow=none;html=1;rounded=0;entryX=0;entryY=0.5;entryDx=0;entryDy=0;" parent="1" source="O4O9o7GR4JmY8JjRpWBt-60" target="bMSFZ0AqYy7OHh_Ez0hN-5" edge="1">
          <mxGeometry width="50" height="50" relative="1" as="geometry">
            <mxPoint x="314" y="1320" as="sourcePoint" />
            <mxPoint x="364" y="1270" as="targetPoint" />
          </mxGeometry>
        </mxCell>
        <mxCell id="bMSFZ0AqYy7OHh_Ez0hN-8" value="" style="endArrow=none;html=1;rounded=0;entryX=0;entryY=0.5;entryDx=0;entryDy=0;" parent="1" source="O4O9o7GR4JmY8JjRpWBt-60" target="bMSFZ0AqYy7OHh_Ez0hN-7" edge="1">
          <mxGeometry width="50" height="50" relative="1" as="geometry">
            <mxPoint x="334" y="1470" as="sourcePoint" />
            <mxPoint x="384" y="1420" as="targetPoint" />
          </mxGeometry>
        </mxCell>
        <mxCell id="16TQ4lvST8oH4qSsmWAM-21" value="" style="endArrow=none;html=1;rounded=0;entryX=0;entryY=0.5;entryDx=0;entryDy=0;" parent="1" target="O4O9o7GR4JmY8JjRpWBt-3" edge="1">
          <mxGeometry width="50" height="50" relative="1" as="geometry">
            <mxPoint x="384" y="600" as="sourcePoint" />
            <mxPoint x="694" y="440" as="targetPoint" />
          </mxGeometry>
        </mxCell>
        <mxCell id="Thp1dpwoOktOX89k4j6r-5" value="" style="endArrow=none;html=1;rounded=0;entryX=0;entryY=0.5;entryDx=0;entryDy=0;" parent="1" source="O4O9o7GR4JmY8JjRpWBt-63" target="Thp1dpwoOktOX89k4j6r-4" edge="1">
          <mxGeometry width="50" height="50" relative="1" as="geometry">
            <mxPoint x="404" y="1780" as="sourcePoint" />
            <mxPoint x="454" y="1730" as="targetPoint" />
          </mxGeometry>
        </mxCell>
        <mxCell id="Thp1dpwoOktOX89k4j6r-7" value="" style="endArrow=none;html=1;rounded=0;entryX=0;entryY=1;entryDx=0;entryDy=0;" parent="1" source="O4O9o7GR4JmY8JjRpWBt-63" target="Thp1dpwoOktOX89k4j6r-6" edge="1">
          <mxGeometry width="50" height="50" relative="1" as="geometry">
            <mxPoint x="384" y="1750" as="sourcePoint" />
            <mxPoint x="434" y="1700" as="targetPoint" />
          </mxGeometry>
        </mxCell>
        <mxCell id="O4O9o7GR4JmY8JjRpWBt-92" value="" style="endArrow=none;html=1;rounded=0;exitX=1;exitY=0.5;exitDx=0;exitDy=0;" parent="1" source="O4O9o7GR4JmY8JjRpWBt-4" target="gj2pyBspUI980Gxztwlt-11" edge="1">
          <mxGeometry width="50" height="50" relative="1" as="geometry">
            <mxPoint x="1062" y="-305.6400000000002" as="sourcePoint" />
            <mxPoint x="1697" y="30.00285714285735" as="targetPoint" />
          </mxGeometry>
        </mxCell>
      </root>
    </mxGraphModel>
  </diagram>
</mxfile>
